<?xml version="1.0" encoding="UTF-8"?>
<svg width="378px" height="400px" viewBox="0 0 378 400" version="1.1" xmlns="http://www.w3.org/2000/svg" xmlns:xlink="http://www.w3.org/1999/xlink">
    <title>无权限备份 3</title>
    <defs>
        <linearGradient x1="50%" y1="-29.88559%" x2="50%" y2="44.0501254%" id="linearGradient-1">
            <stop stop-color="#CFDFFA" offset="0%"></stop>
            <stop stop-color="#EAF0FC" stop-opacity="0" offset="100%"></stop>
        </linearGradient>
        <linearGradient x1="50%" y1="33.9919289%" x2="53.6226986%" y2="69.5259406%" id="linearGradient-2">
            <stop stop-color="#CFDFFA" offset="0%"></stop>
            <stop stop-color="#EAF0FC" stop-opacity="0" offset="100%"></stop>
        </linearGradient>
        <linearGradient x1="50%" y1="36.8839934%" x2="53.6226986%" y2="65.9983275%" id="linearGradient-3">
            <stop stop-color="#CFDFFA" offset="0%"></stop>
            <stop stop-color="#EAF0FC" stop-opacity="0" offset="100%"></stop>
        </linearGradient>
        <linearGradient x1="50%" y1="11.4973736%" x2="57.985267%" y2="100%" id="linearGradient-4">
            <stop stop-color="#BFD4FA" offset="0%"></stop>
            <stop stop-color="#5792F0" offset="100%"></stop>
        </linearGradient>
        <linearGradient x1="50%" y1="11.4973736%" x2="52.1854512%" y2="131.881015%" id="linearGradient-5">
            <stop stop-color="#BFD4FA" offset="0%"></stop>
            <stop stop-color="#5792F0" offset="100%"></stop>
        </linearGradient>
        <linearGradient x1="50%" y1="11.4973738%" x2="74.2827921%" y2="131.881014%" id="linearGradient-6">
            <stop stop-color="#BFD4FA" offset="0%"></stop>
            <stop stop-color="#5792F0" offset="100%"></stop>
        </linearGradient>
        <linearGradient x1="50%" y1="11.4973736%" x2="53.7684039%" y2="131.881015%" id="linearGradient-7">
            <stop stop-color="#BFD4FA" offset="0%"></stop>
            <stop stop-color="#5792F0" offset="100%"></stop>
        </linearGradient>
        <linearGradient x1="50%" y1="11.4973736%" x2="51.8736626%" y2="131.881015%" id="linearGradient-8">
            <stop stop-color="#BFD4FA" offset="0%"></stop>
            <stop stop-color="#5792F0" offset="100%"></stop>
        </linearGradient>
        <linearGradient x1="50%" y1="11.4973736%" x2="55.3355306%" y2="131.881015%" id="linearGradient-9">
            <stop stop-color="#BFD4FA" offset="0%"></stop>
            <stop stop-color="#5792F0" offset="100%"></stop>
        </linearGradient>
        <linearGradient x1="50%" y1="48.257011%" x2="74.2827921%" y2="53.7067005%" id="linearGradient-10">
            <stop stop-color="#BFD4FA" offset="0%"></stop>
            <stop stop-color="#5792F0" offset="100%"></stop>
        </linearGradient>
        <linearGradient x1="118.461169%" y1="67.1263632%" x2="38.1376013%" y2="43.855314%" id="linearGradient-11">
            <stop stop-color="#5792F0" offset="0%"></stop>
            <stop stop-color="#BFD4FA" offset="100%"></stop>
        </linearGradient>
        <linearGradient x1="118.461169%" y1="68.0196396%" x2="38.1376013%" y2="43.5348196%" id="linearGradient-12">
            <stop stop-color="#5792F0" offset="0%"></stop>
            <stop stop-color="#BFD4FA" offset="100%"></stop>
        </linearGradient>
        <linearGradient x1="61.1381306%" y1="133.594066%" x2="48.0700746%" y2="20.0076843%" id="linearGradient-13">
            <stop stop-color="#5792F0" offset="0%"></stop>
            <stop stop-color="#BFD4FA" offset="100%"></stop>
        </linearGradient>
        <linearGradient x1="104.092776%" y1="133.594066%" x2="40.6272405%" y2="20.0076843%" id="linearGradient-14">
            <stop stop-color="#5792F0" offset="0%"></stop>
            <stop stop-color="#BFD4FA" offset="100%"></stop>
        </linearGradient>
        <linearGradient x1="118.461169%" y1="133.594066%" x2="38.1376013%" y2="20.0076843%" id="linearGradient-15">
            <stop stop-color="#5792F0" offset="0%"></stop>
            <stop stop-color="#BFD4FA" offset="100%"></stop>
        </linearGradient>
        <linearGradient x1="93.498222%" y1="133.594066%" x2="42.4629793%" y2="20.0076843%" id="linearGradient-16">
            <stop stop-color="#5792F0" offset="0%"></stop>
            <stop stop-color="#BFD4FA" offset="100%"></stop>
        </linearGradient>
        <linearGradient x1="50%" y1="12.9243097%" x2="50%" y2="100%" id="linearGradient-17">
            <stop stop-color="#FFCDA5" offset="0%"></stop>
            <stop stop-color="#FFE8D1" offset="100%"></stop>
        </linearGradient>
        <linearGradient x1="42.5456857%" y1="0%" x2="87.5555556%" y2="100%" id="linearGradient-18">
            <stop stop-color="#FFF2DF" offset="0%"></stop>
            <stop stop-color="#FEE0BC" offset="100%"></stop>
        </linearGradient>
        <linearGradient x1="14.3474826%" y1="0.993413861%" x2="100%" y2="80.2469137%" id="linearGradient-19">
            <stop stop-color="#BFD4FA" offset="0%"></stop>
            <stop stop-color="#5792F0" offset="100%"></stop>
        </linearGradient>
        <linearGradient x1="172.425527%" y1="42.261099%" x2="10.2765284%" y2="73.9286714%" id="linearGradient-20">
            <stop stop-color="#BFD4FA" offset="0%"></stop>
            <stop stop-color="#5792F0" offset="100%"></stop>
        </linearGradient>
        <linearGradient x1="160.3088%" y1="52.4115114%" x2="-6.29144848%" y2="50%" id="linearGradient-21">
            <stop stop-color="#BFD4FA" offset="0%"></stop>
            <stop stop-color="#5792F0" offset="100%"></stop>
        </linearGradient>
        <linearGradient x1="50%" y1="0%" x2="50%" y2="100%" id="linearGradient-22">
            <stop stop-color="#FEE127" offset="0%"></stop>
            <stop stop-color="#F9AB21" offset="100%"></stop>
        </linearGradient>
        <linearGradient x1="8.33922697%" y1="32.2176369%" x2="95.466239%" y2="73.9609744%" id="linearGradient-23">
            <stop stop-color="#FEE127" offset="0%"></stop>
            <stop stop-color="#F9AB21" offset="100%"></stop>
        </linearGradient>
    </defs>
    <g id="新" stroke="none" stroke-width="1" fill="none" fill-rule="evenodd">
        <g id="无权限备份-3" fill-rule="nonzero">
            <g id="无权限备份-2">
                <g id="背景">
                    <ellipse id="椭圆形" fill="url(#linearGradient-1)" cx="189" cy="301.5" rx="189" ry="98.5"></ellipse>
                    <path d="M321,45.875 C321,51.5 315.559091,56 308.686363,56 L270.6,56 C263.727273,55.55 258,51.275 258,45.425 C258,41.6 260.577273,38.225 264.3,36.425 C264.013637,35.75 263.727273,35.075 263.727273,34.4 C263.727273,30.575 267.45,27.2 272.318182,27.2 C274.322727,27.2 276.040909,27.875 277.472727,28.775 C280.909091,23.6 287.209091,20 294.654546,20 C304.963637,20 313.268182,26.975 313.268182,35.525 L313.268182,36.425 C317.85,38 321,41.6 321,45.875 Z" id="云" fill="url(#linearGradient-2)"></path>
                    <path d="M65.3787879,-1.88293825e-13 C75.1355556,-1.88293825e-13 83.4359708,6.14028587 86.5124837,14.7107714 L94.1590909,14.7115385 C101.803214,14.7115385 108,20.8138112 108,28.3413462 L108,31.3701923 C108,38.8977272 101.803214,45 94.1590909,45 L37.4772727,45 C30.6221506,45 24.9310063,40.0924282 23.8291967,33.6503977 C22.039451,30.9399585 21,27.7049008 21,24.2307692 C21,14.6719947 28.8689347,6.92307692 38.5757576,6.92307692 C41.7131066,6.92307692 44.6584604,7.73256884 47.2081851,9.15102469 C51.2777506,3.60731061 57.9004783,-1.88293825e-13 65.3787879,-1.88293825e-13 Z" id="云" fill="url(#linearGradient-3)"></path>
                    <g id="草" transform="translate(67.000000, 224.000000)">
                        <ellipse id="椭圆形" fill="#CCDCF6" cx="11" cy="30.5" rx="5" ry="1.5"></ellipse>
                        <path d="M5,29.4948705 C5.69727515,18.3767791 8.61838399,11.9416892 13.7633264,10.1896009 C15.788895,9.93138029 18.0464262,9.54312703 16.4723274,12.0496505 C14.8982286,14.5561738 10.6830808,13.5807197 6.46807275,29.4882434 C6.08683539,30.1683693 5.5974778,30.1705783 5,29.4948705 Z" id="路径-42" fill="url(#linearGradient-4)"></path>
                        <path d="M5.2846708,29.2045275 C3.89036231,18.7669363 2.74916781,12.2029397 1.86108727,9.51253774 C0.528966469,5.47693481 -2.30736723,-2.28970207 3.59573728,0.648613947 C9.49884176,3.58692996 10.1967696,18.6590687 7.46810775,27.831695 C6.61998237,30.1527828 5.89217005,30.6103936 5.2846708,29.2045275 Z" id="路径-41" fill="url(#linearGradient-5)"></path>
                    </g>
                    <g id="草" transform="translate(270.000000, 203.000000)">
                        <path d="M25.7633215,38 C24.8001922,33.5224724 21.9875075,30.3925218 17.3252674,28.6101481 C12.0011595,26.8622259 9.08422555,24.7845216 12.4157812,23.2779933 C15.2290976,23.0495938 21.2289175,20.8119143 25.7633215,34.1778083 C26.0788928,35.4730316 26.0788928,36.7470955 25.7633215,38 Z" id="路径-43" fill="url(#linearGradient-6)"></path>
                        <path d="M25.3359803,38 C22.5603947,27.2282777 19.4073299,19.3639646 15.8767859,14.4070607 C13.2844025,11.019701 13.4660546,6.17264344 15.8767859,5.07707984 C18.344422,4.79177636 22.8923525,4.35050363 26.316734,22.9146093 C26.533011,24.1915219 27.739641,31.6617243 26.316734,36.4827815 C26.1061219,37.1444325 25.779204,37.650172 25.3359803,38 Z" id="路径-44" fill="url(#linearGradient-7)"></path>
                        <path d="M26.8252876,35.7663359 C28.0920253,30.9578722 27.9311992,24.6839353 26.3428093,16.9445249 C23.9132075,9.44185823 19.7661536,0.212757917 27.3249274,1.0658141e-14 C30.3915574,0.428639895 34.094593,3.73268611 32.6953914,20.1996696 C31.8427345,26.8444264 30.3598061,30.7698026 28.8035208,35.7663359 C28.2606326,36.077888 27.6012215,36.077888 26.8252876,35.7663359 Z" id="路径-45" fill="url(#linearGradient-8)"></path>
                        <path d="M28.0693378,39 C27.5354945,25.0359631 30.0842622,15.0145713 35.715641,8.9358245 C37.2363466,6.90454956 43.0217787,5.00211803 43,11.3696529 C42.3959617,14.1076528 41.1035802,19.9529405 33.6511736,28.8711285 C31.1960276,32.0899608 29.5824459,36.7935697 29.5667182,37.8963916 C29.5562331,38.6316063 29.0571063,38.9994757 28.0693378,39 Z" id="路径-46" fill="url(#linearGradient-9)"></path>
                        <path d="M0,39.9637855 C5.43021614,38.9510845 8.42490651,38.0913867 8.98407099,37.3846923 C9.8228178,36.3246507 17.2117955,31.7731904 21.8195317,35.6069494 C22.8225625,34.3171161 26.0393802,33.3137889 27.8802959,35.6069494 C28.7225258,31.9865341 33.9767177,29.6679014 36.2618195,30.043529 C38.8352026,29.8420189 46.4322165,29.9258592 47,39.9637855 C44.9272379,40.0120715 29.2605712,40.0120715 0,39.9637855 Z" id="路径-47" fill="url(#linearGradient-10)"></path>
                    </g>
                </g>
                <path d="M115.931866,236.644638 C115.931866,236.644638 112.133951,235.022316 104.538122,231.777672 L115.931866,231.777672 L100.216621,219 L123.853596,227.822319 L135.315538,223.044803 L136.680053,231.777672 L160.129392,221.652948 L141.15652,238.196208 L160.129392,238.196208 L146.761647,241.20816 L156.63525,247.263497 L143.925761,243.199077 L170,261.752623 C147.786702,252.284378 136.680053,247.908962 136.680053,248.626375 C136.680053,249.343788 138.172209,252.272205 141.15652,257.411627 L130.335572,251.338282 L128.350001,257.411627 L125.936876,253.651927 C113.411224,260.175345 107.148398,262.875576 107.148398,261.752623 C107.148398,260.62967 110.076221,257.158223 115.931866,251.338282 L76.3682676,255.727749 L113.225333,244.37827 L96.4895083,244.37827 L110.64385,240.5 L75,236.644638 C102.287911,236.644638 115.931866,236.644638 115.931866,236.644638 Z" id="路径-14" fill="url(#linearGradient-11)" opacity="0.200000003"></path>
                <path d="M124.040101,238.803505 C124.040101,238.803505 122.919028,238.156675 120.676882,236.863017 L124.040101,236.863017 L119.401256,233 L126.378447,235.667212 L129.761798,234.222847 L130.164577,236.863017 L137.086381,233.802054 L131.485945,238.803505 L137.086381,238.803505 L133.140474,239.714094 L136.054976,241.544778 L132.303374,240.316 L140,245.925212 C133.443051,243.062719 130.164577,241.739919 130.164577,241.956811 C130.164577,242.173703 130.605033,243.059038 131.485945,244.612817 L128.291805,242.77669 L127.705702,244.612817 L126.993392,243.476164 C123.296055,245.448359 121.447386,246.264709 121.447386,245.925212 C121.447386,245.585714 122.311625,244.536206 124.040101,242.77669 L112.361669,244.103738 L123.241184,240.6725 L118.301082,240.6725 L122.479178,239.5 L112,239.292289 C120.026734,238.966433 124.040101,238.803505 124.040101,238.803505 Z" id="路径-14备份-2" fill="url(#linearGradient-12)"></path>
                <path d="M124.46338,71 C136.002874,71 140.703043,80.2582264 140.703043,85.68944 C146.764625,86.5691571 159,92.990745 159,104.850084 C159,116.709421 149.312851,122.394859 146.124653,124.91177 C145.539067,125.37406 144.802786,125.813577 144.02452,126.260604 L143.763692,126.409932 C143.720012,126.43488 143.676238,126.459862 143.632391,126.484883 L143.236285,126.711255 C139.971328,128.583443 136.609174,130.753148 140.703043,135.324446 C144.31745,139.360367 144.559713,141.506889 141.429831,141.764012 L136.002874,141.764012 L136.002874,234.339445 L131.290386,239 L122.280829,239 L113.841585,226.280212 L113.841585,220.911995 L120.468318,216.849132 L120.468318,208.207701 L115.56921,203.294045 L115.56921,192.223887 L119.345761,185.019278 L119.345761,167.313245 L113.841585,162.334209 L113.841585,141.764012 L109.164399,141.764012 C104.894525,141.768205 104.894525,139.621684 109.164399,135.324446 C112.551321,131.710318 111.292853,128.293119 104.446849,124.91177 C98.7968437,122.372278 89.945201,115.251527 91.103189,104.850084 C92.0539114,95.390564 98.0743147,89.0036833 109.164399,85.68944 C111.670723,75.8964795 116.770384,71 124.46338,71 Z M125.5,81 C120.253295,81 116,85.253295 116,90.5 C116,95.746705 120.253295,100 125.5,100 C130.746705,100 135,95.746705 135,90.5 C135,85.253295 130.746705,81 125.5,81 Z" id="形状结合备份" fill="url(#linearGradient-13)"></path>
                <g id="编组-3" transform="translate(49.000000, 35.000000)">
                    <path d="M4,72 C6.20913901,72 8,74.0147186 8,76.5 C8,78.9852813 6.20913901,81 4,81 C1.79086101,81 -1.87405647e-13,78.9852813 -1.87405647e-13,76.5 C-1.87405647e-13,74.0147186 1.79086101,72 4,72 Z M4.5,74 C3.11928813,74 2,75.1192881 2,76.5 C2,77.8807119 3.11928813,79 4.5,79 C5.88071187,79 7,77.8807119 7,76.5 C7,75.1192881 5.88071187,74 4.5,74 Z" id="形状结合备份-2" fill="url(#linearGradient-14)"></path>
                    <path d="M150,128 C151.656855,128 153,129.343146 153,131 C153,132.656854 151.656855,134 150,134 C148.343145,134 147,132.656854 147,131 C147,129.343146 148.343145,128 150,128 Z M150,129 C148.89543,129 148,129.671573 148,130.5 C148,131.328428 148.89543,132 150,132 C151.10457,132 152,131.328428 152,130.5 C152,129.671573 151.10457,129 150,129 Z" id="形状结合备份-7" fill="url(#linearGradient-15)"></path>
                    <path d="M62,-4.60076421e-13 C63.1834673,-4.60076421e-13 64.1428571,0.95938982 64.1428571,2.14285714 L64.1421689,7.8571169 L69.8571429,7.85714287 C71.0406102,7.85714287 72,8.81653266 72,10 C72,11.1834673 71.0406102,12.1428572 69.8571429,12.1428572 L64.1421689,12.1421689 L64.1428571,17.8571429 C64.1428571,19.0406102 63.1834673,20 62,20 C60.8165327,20 59.8571429,19.0406102 59.8571429,17.8571429 L59.8571169,12.1421689 L54.1428571,12.1428572 C52.9593898,12.1428572 52,11.1834673 52,10 C52,8.81653266 52.9593898,7.85714287 54.1428571,7.85714287 L59.8571169,7.8571169 L59.8571429,2.14285714 C59.8571429,0.95938982 60.8165327,-4.60076421e-13 62,-4.60076421e-13 Z" id="形状结合" fill="url(#linearGradient-15)"></path>
                    <path d="M119.5,33 C120.297744,33 120.944445,33.6466998 120.944445,34.4444445 L120.944418,38.0551747 L124.555555,38.0555555 C125.3533,38.0555555 126,38.7022554 126,39.5 C126,40.2977446 125.3533,40.9444445 124.555555,40.9444445 L120.944418,40.9444182 L120.944445,44.5555555 C120.944445,45.3533002 120.297744,46 119.5,46 C118.702256,46 118.055555,45.3533002 118.055555,44.5555555 L118.055175,40.9444182 L114.444444,40.9444445 C113.6467,40.9444445 113,40.2977446 113,39.5 C113,38.7022554 113.6467,38.0555555 114.444444,38.0555555 L118.055175,38.0551747 L118.055555,34.4444445 C118.055555,33.6466998 118.702256,33 119.5,33 Z" id="形状结合备份-3" fill="url(#linearGradient-15)"></path>
                    <path d="M136.5,95 C137.297744,95 137.944445,95.6467003 137.944445,96.4444446 L137.944418,100.055174 L141.555555,100.055556 C142.3533,100.055556 143,100.702255 143,101.5 C143,102.297745 142.3533,102.944444 141.555555,102.944444 L137.944418,102.944418 L137.944445,106.555555 C137.944445,107.3533 137.297744,108 136.5,108 C135.702256,108 135.055555,107.3533 135.055555,106.555555 L135.055175,102.944418 L131.444445,102.944444 C130.6467,102.944444 130,102.297745 130,101.5 C130,100.702255 130.6467,100.055556 131.444445,100.055556 L135.055175,100.055174 L135.055555,96.4444446 C135.055555,95.6467003 135.702256,95 136.5,95 Z" id="形状结合备份-4" fill="url(#linearGradient-15)"></path>
                    <path d="M14,117 C14.8591097,117 15.5555556,117.696446 15.5555556,118.555556 L15.5555273,122.443862 L19.4444444,122.444444 C20.3035541,122.444444 21,123.14089 21,124 C21,124.85911 20.3035541,125.555555 19.4444444,125.555555 L15.5555273,125.555527 L15.5555556,129.444444 C15.5555556,130.303554 14.8591097,131 14,131 C13.1408904,131 12.4444445,130.303554 12.4444445,129.444444 L12.4438618,125.555527 L8.55555554,125.555555 C7.69644594,125.555555 7,124.85911 7,124 C7,123.14089 7.69644594,122.444444 8.55555554,122.444444 L12.4438618,122.443862 L12.4444445,118.555556 C12.4444445,117.696446 13.1408904,117 14,117 Z" id="形状结合备份-5" fill="url(#linearGradient-15)"></path>
                    <path d="M45.5,152 C46.1750147,152 46.7222223,152.547208 46.7222223,153.222223 L46.7222,156.277625 L49.7777778,156.277778 C50.4527925,156.277778 51,156.824985 51,157.5 C51,158.175015 50.4527925,158.722222 49.7777778,158.722222 L46.7222,158.7222 L46.7222223,161.777777 C46.7222223,162.452793 46.1750147,163 45.5,163 C44.8249853,163 44.2777778,162.452793 44.2777778,161.777777 L44.277625,158.7222 L41.2222222,158.722222 C40.5472075,158.722222 40,158.175015 40,157.5 C40,156.824985 40.5472075,156.277778 41.2222222,156.277778 L44.277625,156.277625 L44.2777778,153.222223 C44.2777778,152.547208 44.8249853,152 45.5,152 Z" id="形状结合备份-6" fill="url(#linearGradient-15)"></path>
                </g>
                <g id="锁" transform="translate(146.000000, 173.000000)" fill="url(#linearGradient-16)">
                    <path d="M50.4166392,69 L4.58336083,69 C2.05226589,69 0,66.9403776 0,64.4000736 L0,32.2000368 C0,29.6596224 2.05226589,27.6 4.58336083,27.6 L9.16672166,27.6 L9.16672166,18.4000368 C9.16672166,8.23639202 17.3754552,0 27.500055,0 C37.6246547,0 45.8333883,8.23639202 45.8333883,18.4000368 L45.8333883,27.6 L50.4167491,27.6 C52.9478441,27.6 55,29.6596224 55,32.2000368 L55,64.4000736 C55,66.9403776 52.9477341,69 50.4166392,69 Z M25.666704,50.3777414 L25.666704,57.7000331 C25.666704,58.9689727 26.710208,60 28,60 C29.289792,60 30.333408,58.9689727 30.333408,57.7000331 L30.333408,50.3777414 C33.044928,49.4254295 35,46.8984798 35,43.9000111 C35,40.088445 31.8668,37 28,37 C24.1332,37 21,40.088445 21,43.9000111 C21,46.8984798 22.955072,49.4254295 25.666704,50.3777414 L25.666704,50.3777414 Z M36,18 C36,13.0297121 31.9702041,9 26.999946,9 C22.0296879,9 18,13.0298201 18,18 L18,27 L36,27 L36,18 L36,18 Z" id="形状"></path>
                </g>
                <g id="人物" transform="translate(202.000000, 207.000000)">
                    <ellipse id="椭圆形" fill="#CCDCF6" cx="34" cy="60.5" rx="34" ry="8.5"></ellipse>
                    <g id="头" transform="translate(34.170846, 14.964387) rotate(33.000000) translate(-34.170846, -14.964387) translate(24.989273, 3.083984)">
                        <rect id="矩形" fill="url(#linearGradient-17)" x="8.29925815" y="17.2653013" width="6" height="6"></rect>
                        <ellipse id="椭圆形" fill="url(#linearGradient-18)" cx="11.9974035" cy="12.2764875" rx="6.5" ry="7.5"></ellipse>
                        <path d="M18.108112,7.53166584 C16.3078613,9.94299976 14.2680594,11.3965026 11.9887065,11.8921744 C11.1993685,12.26608 9.47512159,11.1088378 9.11190266,12.6670426 C9.00873389,13.7119104 9.6144853,15.1458593 10.4717573,14.8878451 C10.1677497,15.8093793 9.31447003,16.8483422 7.91191863,18.0047337 C6.16559563,18.3197139 4.55271335,17.9957121 3.07327179,17.0327281 C0.0716930416,14.8223545 -1.92579397,7.32154477 3.56251776,3.58167649 C3.70599027,3.50079247 9.4259911,-1.80556561 15.8422317,3.42000141 C17.392631,4.57734119 18.1479245,5.947896 18.108112,7.53166584 Z" id="路径-53" fill="#483029"></path>
                        <circle id="椭圆形" fill="#483029" cx="3.49676163" cy="2.67739923" r="3"></circle>
                    </g>
                    <path d="M58.0696646,54.934338 L57.7248417,57.4837477 C56.3205347,57.5334323 54.7933708,58.0004289 53.1433501,58.8847374 C52.0815675,59.6554182 52.0343105,60.0046145 52.0001288,60.6682048 C51.977341,61.1105984 54.9772981,61.1105984 61,60.6682048 L61,54 L58.0696646,54.934338 Z" id="路径-52" fill="url(#linearGradient-19)" transform="translate(56.500000, 57.500000) scale(-1, 1) translate(-56.500000, -57.500000) "></path>
                    <path d="M28.9467515,45.6553573 C31.7270434,41.616758 38.612341,32.2609633 46.495513,33.0465853 C53.7075731,33.765362 56,55.8718429 56,55.8718429 L50.1224197,55.9397395 L44.4392445,42.5848613 L32.0360974,58 L23,54.570867 L28.9467515,45.6553573 Z" id="Fill-1706" fill="url(#linearGradient-20)"></path>
                    <path d="M8.11075096,46 C6.38227285,51.9663561 5.99446203,61.2777551 12.033314,62.5879308 C15.3576853,63.3091618 19.6793679,62.8501967 30.8488652,62.9157628 C41.886363,62.9805604 49.0660296,63.5058612 48.9995421,57.5395055 C48.933055,51.5729571 35.5694726,53.0809857 32.7105133,52.8187198 C29.851749,52.5564539 16.6209463,52.4253212 16.6209463,52.4253212 L8.11075096,46 Z" id="Fill-1708" fill="url(#linearGradient-21)"></path>
                    <path d="M32.992816,27.2956508 C32.992816,27.2956508 32.2526599,26.5760981 30.6303324,25.1176515 C27.5431563,22.8603902 28.7309911,21.0097614 28.7309911,21.0097614 C28.7309911,21.0097614 21.143965,20.2933989 14.9612922,31.1343018 C11.2375232,37.6636814 7,47.9354387 7,47.9354387 C7,47.9354387 11.3254717,53.16656 26.9043377,51.7597694 C26.9043377,51.7597694 31.5824676,42.8726859 33.9997115,38.5855196 C35.6112075,35.7272779 35.2755757,31.9639883 32.992816,27.2956508 Z" id="Fill-1709" fill="url(#linearGradient-22)"></path>
                    <polygon id="矩形" fill="#483029" transform="translate(56.887685, 39.822605) scale(-1, 1) rotate(20.000000) translate(-56.887685, -39.822605) " points="52.9324822 39.4225466 60.8421484 39.429936 60.8428874 40.222664 52.9332211 40.2152745"></polygon>
                    <path d="M52.2944784,40.4558379 C52.876326,40.3706546 53.4861933,40.2897564 54.1240804,40.2131434 C54.3341481,40.0970486 54.6085176,40.009937 54.9471889,39.9518089 C55.5782262,39.974969 55.8447195,40.099113 55.7466691,40.3242406 C55.6486186,40.5493681 55.4632481,40.6934252 55.1905576,40.7564117 L56.2208447,40.8817973 L57.2847794,40.7408249 C58.4060509,40.6183356 58.8218823,40.9527047 58.5322736,41.7439322 C58.0306589,42.5708422 56.7401538,43.2291327 54.8802189,42.5147773 C54.4848495,42.2134428 53.8648144,42.0382112 53.0201134,41.9890825 L52.2944784,40.4558379 Z" id="路径-50备份" fill="#FEE0BC" transform="translate(55.457962, 41.385700) rotate(-19.000000) translate(-55.457962, -41.385700) "></path>
                    <path d="M52.6049882,41.3487687 L35.7845641,47.7431337 L31.3306407,30.0055322 C29.997519,26.9098443 27.656582,25.6085403 24.30783,26.1016204 C21.9295053,27.1990531 20.8379013,29.4816026 21.0194018,31.9574882 C21.2009023,34.4333738 24.7208059,44.8259441 28.2962234,49.4497381 C31.003009,52.5861734 32.6354806,54.7559256 36.5308161,53.7524833 C38.5427759,53.0597959 44.3658372,50.1380423 54,44.9872228 L52.6049882,41.3487687 Z" id="路径-3" fill="url(#linearGradient-23)"></path>
                </g>
            </g>
        </g>
    </g>
</svg>